<svg id="Layer_1" enable-background="new 0 0 512 512" viewBox="0 0 512 512" xmlns="http://www.w3.org/2000/svg"><g><g><path clip-rule="evenodd" d="m61.368 52.418h346.935v435.763h-346.935z" fill="#c86f5c" fill-rule="evenodd"/></g><g><path clip-rule="evenodd" d="m408.303 338.767v149.413h-119.572c-30.395-41.534-23.821-100.666 16.084-134.347 29.639-24.984 69.981-29.492 103.488-15.066z" fill="#b55741" fill-rule="evenodd"/></g><g><path clip-rule="evenodd" d="m70.85 61.9h327.941v416.798h-327.941z" fill="#ffecc7" fill-rule="evenodd"/></g><g><path clip-rule="evenodd" d="m398.791 335.248v143.451h-116.197c-23.094-40.662-14.717-93.685 22.222-124.865 26.875-22.658 62.592-28.475 93.975-18.586z" fill="#f7d9ac" fill-rule="evenodd"/></g><g><path clip-rule="evenodd" d="m142.371 31.563h59.626c.553-17.247 14.718-31.063 32.111-31.063s31.558 13.816 32.14 31.063h59.597v67.915h-183.474z" fill="#ffc328" fill-rule="evenodd"/></g><path d="m199.757 160.559c0-3.968 3.217-7.184 7.185-7.184h157.354c3.968 0 7.185 3.217 7.185 7.184s-3.217 7.184-7.185 7.184h-157.354c-3.968 0-7.185-3.217-7.185-7.184zm7.185 30.976h90.718c3.968 0 7.185-3.217 7.185-7.184s-3.217-7.184-7.185-7.184h-90.718c-3.968 0-7.185 3.217-7.185 7.184s3.217 7.184 7.185 7.184zm157.354 71.319h-157.354c-3.968 0-7.185 3.217-7.185 7.184 0 3.968 3.217 7.184 7.185 7.184h157.354c3.968 0 7.185-3.217 7.185-7.184-.001-3.968-3.217-7.184-7.185-7.184zm-157.354 38.131h90.718c3.968 0 7.185-3.217 7.185-7.184s-3.217-7.184-7.185-7.184h-90.718c-3.968 0-7.185 3.217-7.185 7.184s3.217 7.184 7.185 7.184zm157.354 71.318h-157.354c-3.968 0-7.185 3.217-7.185 7.184 0 3.968 3.217 7.184 7.185 7.184h157.354c3.968 0 7.185-3.217 7.185-7.184-.001-3.968-3.217-7.184-7.185-7.184zm-66.636 23.792h-90.718c-3.968 0-7.185 3.217-7.185 7.184 0 3.968 3.217 7.184 7.185 7.184h90.718c3.968 0 7.185-3.217 7.185-7.184-.001-3.967-3.217-7.184-7.185-7.184z" fill="#ffc97b"/><g><path clip-rule="evenodd" d="m315.984 367.096c34.554-29.173 86.21-24.781 115.354 9.773s24.781 86.181-9.773 115.325c-34.554 29.173-86.21 24.781-115.354-9.773s-24.752-86.18 9.773-115.325z" fill="#31a7fb" fill-rule="evenodd"/></g><g><path d="m359.38 463.487c-2.117 0-4.126-.933-5.491-2.552l-25.566-30.307c-2.558-3.033-2.173-7.565.859-10.124 3.034-2.559 7.565-2.173 10.124.859l20.037 23.753 38.871-46.722c2.537-3.05 7.069-3.466 10.117-.928 3.05 2.538 3.466 7.067.929 10.118l-44.356 53.314c-1.36 1.634-3.373 2.582-5.499 2.589-.009 0-.017 0-.025 0z" fill="#f2fbff"/></g><g><path clip-rule="evenodd" d="m136.7 130.484c10.209 0 18.469 8.26 18.469 18.44s-8.26 18.44-18.469 18.44c-10.18 0-18.44-8.26-18.44-18.44s8.26-18.44 18.44-18.44z" fill="#fdb4ba" fill-rule="evenodd"/></g><g><path clip-rule="evenodd" d="m170.468 214.426v-29.289c0-9.773-7.999-17.772-17.772-17.772h-31.965c-9.773 0-17.771 7.999-17.771 17.772v29.289z" fill="#fd4755" fill-rule="evenodd"/></g><g><path clip-rule="evenodd" d="m136.7 130.484c10.209 0 18.469 8.26 18.469 18.44s-8.26 18.44-18.469 18.44c-.989 0-2.007-.087-2.967-.233 8.755-1.425 15.474-9.045 15.474-18.207s-6.719-16.783-15.474-18.208c.96-.145 1.978-.232 2.967-.232z" fill="#fe99a0" fill-rule="evenodd"/></g><g><path clip-rule="evenodd" d="m170.468 214.426v-29.289c0-9.773-7.999-17.772-17.772-17.772h-2.821c8.289 1.513 14.63 8.9 14.63 17.684v29.377z" fill="#e41f2d" fill-rule="evenodd"/></g><g><path clip-rule="evenodd" d="m136.7 239.934c10.209 0 18.469 8.26 18.469 18.44 0 10.209-8.26 18.47-18.469 18.47-10.18 0-18.44-8.261-18.44-18.47 0-10.18 8.26-18.44 18.44-18.44z" fill="#fdb4ba" fill-rule="evenodd"/></g><g><path clip-rule="evenodd" d="m170.468 323.904v-29.318c0-9.773-7.999-17.742-17.772-17.742h-31.965c-9.773 0-17.771 7.969-17.771 17.742v29.318z" fill="#31a7fb" fill-rule="evenodd"/></g><g><path clip-rule="evenodd" d="m136.7 239.934c10.209 0 18.469 8.26 18.469 18.44 0 10.209-8.26 18.47-18.469 18.47-.989 0-2.007-.088-2.967-.262 8.755-1.425 15.474-9.017 15.474-18.208 0-9.162-6.719-16.753-15.474-18.178.96-.175 1.978-.262 2.967-.262z" fill="#fe99a0" fill-rule="evenodd"/></g><g><path clip-rule="evenodd" d="m170.468 323.904v-29.318c0-9.773-7.999-17.742-17.772-17.742h-2.821c8.289 1.512 14.63 8.871 14.63 17.684v29.377h5.963z" fill="#1785f8" fill-rule="evenodd"/></g><g><path clip-rule="evenodd" d="m136.7 349.412c10.209 0 18.469 8.26 18.469 18.44s-8.26 18.44-18.469 18.44c-10.18 0-18.44-8.26-18.44-18.44 0-10.179 8.26-18.44 18.44-18.44z" fill="#fdb4ba" fill-rule="evenodd"/></g><g><path clip-rule="evenodd" d="m170.468 433.354v-29.289c0-9.773-7.999-17.771-17.772-17.771h-31.965c-9.773 0-17.771 7.998-17.771 17.771v29.289z" fill="#05e39c" fill-rule="evenodd"/></g><g><path clip-rule="evenodd" d="m136.7 349.412c10.209 0 18.469 8.26 18.469 18.44s-8.26 18.44-18.469 18.44c-.989 0-2.007-.087-2.967-.233 8.755-1.425 15.474-9.046 15.474-18.208s-6.719-16.783-15.474-18.208c.96-.143 1.978-.231 2.967-.231z" fill="#fe99a0" fill-rule="evenodd"/></g><g><path clip-rule="evenodd" d="m170.468 433.354v-29.289c0-9.773-7.999-17.771-17.772-17.771h-2.821c8.289 1.513 14.63 8.9 14.63 17.684v29.377h5.963z" fill="#0ed290" fill-rule="evenodd"/></g><g><path clip-rule="evenodd" d="m362.202 348.045c25.421-2.007 51.424 7.824 69.137 28.824 29.144 34.554 24.781 86.181-9.773 115.325-17.16 14.485-38.539 20.68-59.277 19.051 16.433-1.338 32.634-7.591 46.188-19.051 34.554-29.144 38.917-80.771 9.773-115.325-14.659-17.393-35.048-27.137-56.048-28.824z" fill="#1785f8" fill-rule="evenodd"/></g></g><g><g><path clip-rule="evenodd" d="m61.749 52.816h346.256v434.91h-346.256z" fill="#c86f5c" fill-rule="evenodd"/></g><g><path clip-rule="evenodd" d="m408.005 338.605v149.121h-119.338c-30.335-41.453-23.775-100.469 16.053-134.084 29.58-24.936 69.843-29.435 103.285-15.037z" fill="#b55741" fill-rule="evenodd"/></g><g><path clip-rule="evenodd" d="m71.212 62.28h327.3v415.983h-327.3z" fill="#ffecc7" fill-rule="evenodd"/></g><g><path clip-rule="evenodd" d="m398.512 335.093v143.17h-115.97c-23.049-40.582-14.689-93.502 22.178-124.621 26.823-22.613 62.47-28.419 93.792-18.549z" fill="#f7d9ac" fill-rule="evenodd"/></g><g><path clip-rule="evenodd" d="m142.594 32.003h59.509c.552-17.215 14.689-31.003 32.048-31.003s31.496 13.788 32.077 31.003h59.48v67.782h-183.114z" fill="#ffc328" fill-rule="evenodd"/></g><path d="m199.867 160.745c0-3.96 3.21-7.17 7.171-7.17h157.046c3.96 0 7.171 3.21 7.171 7.17s-3.21 7.17-7.171 7.17h-157.046c-3.96 0-7.171-3.21-7.171-7.17zm7.171 30.916h90.54c3.96 0 7.171-3.21 7.171-7.17s-3.21-7.17-7.171-7.17h-90.54c-3.96 0-7.171 3.21-7.171 7.17s3.211 7.17 7.171 7.17zm157.046 71.179h-157.046c-3.96 0-7.171 3.21-7.171 7.17s3.21 7.17 7.171 7.17h157.046c3.96 0 7.171-3.21 7.171-7.17s-3.211-7.17-7.171-7.17zm-157.046 38.057h90.54c3.96 0 7.171-3.21 7.171-7.17s-3.21-7.17-7.171-7.17h-90.54c-3.96 0-7.171 3.21-7.171 7.17s3.211 7.17 7.171 7.17zm157.046 71.178h-157.046c-3.96 0-7.171 3.21-7.171 7.17s3.21 7.17 7.171 7.17h157.046c3.96 0 7.171-3.21 7.171-7.17s-3.211-7.17-7.171-7.17zm-66.506 23.746h-90.54c-3.96 0-7.171 3.21-7.171 7.17s3.21 7.17 7.171 7.17h90.54c3.96 0 7.171-3.21 7.171-7.17s-3.21-7.17-7.171-7.17z" fill="#ffc97b"/><g><path clip-rule="evenodd" d="m315.867 366.879c34.486-29.116 86.042-24.732 115.128 9.754 29.087 34.486 24.733 86.013-9.754 115.099-34.486 29.116-86.041 24.733-115.128-9.754-29.087-34.486-24.703-86.012 9.754-115.099z" fill="#31a7fb" fill-rule="evenodd"/></g><g><path d="m359.178 463.081c-2.113 0-4.118-.932-5.48-2.547l-25.516-30.248c-2.553-3.027-2.169-7.551.857-10.104 3.028-2.554 7.551-2.169 10.104.857l19.997 23.706 38.795-46.63c2.532-3.044 7.056-3.459 10.098-.926 3.044 2.533 3.459 7.053.927 10.098l-44.269 53.21c-1.357 1.631-3.366 2.577-5.488 2.584-.009 0-.017 0-.025 0z" fill="#f2fbff"/></g><g><path clip-rule="evenodd" d="m136.933 130.73c10.189 0 18.433 8.244 18.433 18.404s-8.244 18.404-18.433 18.404c-10.16 0-18.404-8.244-18.404-18.404s8.244-18.404 18.404-18.404z" fill="#fdb4ba" fill-rule="evenodd"/></g><g><path clip-rule="evenodd" d="m170.636 214.507v-29.232c0-9.754-7.983-17.737-17.737-17.737h-31.903c-9.754 0-17.736 7.983-17.736 17.737v29.232z" fill="#fd4755" fill-rule="evenodd"/></g><g><path clip-rule="evenodd" d="m136.933 130.73c10.189 0 18.433 8.244 18.433 18.404s-8.244 18.404-18.433 18.404c-.987 0-2.003-.087-2.961-.233 8.738-1.422 15.444-9.028 15.444-18.172s-6.706-16.75-15.444-18.172c.958-.144 1.974-.231 2.961-.231z" fill="#fe99a0" fill-rule="evenodd"/></g><g><path clip-rule="evenodd" d="m170.636 214.507v-29.232c0-9.754-7.983-17.737-17.737-17.737h-2.816c8.273 1.51 14.602 8.883 14.602 17.649v29.32z" fill="#e41f2d" fill-rule="evenodd"/></g><g><path clip-rule="evenodd" d="m136.933 239.965c10.189 0 18.433 8.244 18.433 18.404 0 10.189-8.244 18.434-18.433 18.434-10.16 0-18.404-8.245-18.404-18.434 0-10.16 8.244-18.404 18.404-18.404z" fill="#fdb4ba" fill-rule="evenodd"/></g><g><path clip-rule="evenodd" d="m170.636 323.771v-29.261c0-9.754-7.983-17.707-17.737-17.707h-31.903c-9.754 0-17.736 7.954-17.736 17.707v29.261z" fill="#31a7fb" fill-rule="evenodd"/></g><g><path clip-rule="evenodd" d="m136.933 239.965c10.189 0 18.433 8.244 18.433 18.404 0 10.189-8.244 18.434-18.433 18.434-.987 0-2.003-.088-2.961-.262 8.738-1.423 15.444-8.999 15.444-18.172 0-9.144-6.706-16.72-15.444-18.143.958-.174 1.974-.261 2.961-.261z" fill="#fe99a0" fill-rule="evenodd"/></g><g><path clip-rule="evenodd" d="m170.636 323.771v-29.261c0-9.754-7.983-17.707-17.737-17.707h-2.816c8.273 1.509 14.602 8.854 14.602 17.649v29.319z" fill="#1785f8" fill-rule="evenodd"/></g><g><path clip-rule="evenodd" d="m136.933 349.23c10.189 0 18.433 8.244 18.433 18.404s-8.244 18.404-18.433 18.404c-10.16 0-18.404-8.244-18.404-18.404s8.244-18.404 18.404-18.404z" fill="#fdb4ba" fill-rule="evenodd"/></g><g><path clip-rule="evenodd" d="m170.636 433.007v-29.232c0-9.754-7.983-17.736-17.737-17.736h-31.903c-9.754 0-17.736 7.983-17.736 17.736v29.232z" fill="#05e39c" fill-rule="evenodd"/></g><g><path clip-rule="evenodd" d="m136.933 349.23c10.189 0 18.433 8.244 18.433 18.404s-8.244 18.404-18.433 18.404c-.987 0-2.003-.087-2.961-.232 8.738-1.422 15.444-9.028 15.444-18.172s-6.706-16.75-15.444-18.172c.958-.145 1.974-.232 2.961-.232z" fill="#fe99a0" fill-rule="evenodd"/></g><g><path clip-rule="evenodd" d="m170.636 433.007v-29.232c0-9.754-7.983-17.736-17.737-17.736h-2.816c8.273 1.51 14.602 8.883 14.602 17.649v29.319z" fill="#0ed290" fill-rule="evenodd"/></g><g><path clip-rule="evenodd" d="m361.994 347.865c25.371-2.003 51.323 7.809 69.001 28.768 29.087 34.486 24.733 86.013-9.754 115.099-17.127 14.456-38.463 20.639-59.161 19.014 16.401-1.335 32.57-7.577 46.098-19.014 34.486-29.087 38.841-80.613 9.754-115.099-14.63-17.36-34.979-27.084-55.938-28.768z" fill="#1785f8" fill-rule="evenodd"/></g></g></svg>